<svg width="34" height="38" viewBox="0 0 34 38" fill="none" xmlns="http://www.w3.org/2000/svg">
<path d="M18.6987 1.83183C18.7876 3.33752 18.8093 4.85172 18.9911 6.34249C19.086 7.13047 19.412 7.90141 19.7834 8.61485C20.1095 9.24311 20.4453 9.86497 20.7812 10.489C21.2574 11.3707 21.8897 12.0926 22.5793 12.8018C23.7529 14.0072 25.1301 14.8505 26.531 15.6407C27.4675 16.1667 28.4989 16.533 29.5975 16.5692C30.2002 16.5884 30.7988 16.6991 31.3995 16.7502C31.7966 16.7843 32.1958 16.7374 32.5593 16.5564C32.9387 16.3669 33.1126 16.5202 33.1956 16.9121C33.3536 17.6617 33.565 18.3986 33.6599 19.1674C33.7033 19.5209 33.8673 19.8574 33.9563 20.2067C34.0748 20.671 33.9563 20.8967 33.5532 20.8988C32.016 20.9116 30.5538 21.3716 29.0779 21.7464C28.1729 21.9764 27.2522 22.1447 26.365 22.4343C24.9859 22.8837 23.8043 23.6887 22.8816 24.9175C22.4252 25.5245 21.9233 26.0952 21.4412 26.6809C21.0243 27.1878 20.7318 27.8139 20.5086 28.4528C20.3446 28.9192 20.2142 29.4048 20.1134 29.8925C19.9415 30.7188 19.821 31.5536 19.7301 32.3948C19.6372 33.2424 19.5088 34.0858 19.4219 34.9334C19.3507 35.6106 19.4278 36.2964 19.3231 36.9779C19.2737 37.291 19.2045 37.4315 18.8903 37.4464C18.1731 37.4826 17.4618 37.6317 16.7544 37.7467C16.3929 37.8063 16.0095 37.8724 15.646 37.9788C15.399 38.0512 15.2409 37.9384 15.2251 37.6317C15.1639 36.5562 15.322 35.4892 15.3061 34.4138C15.2943 33.6407 15.3279 32.8548 15.2153 32.0988C14.9406 30.2588 14.3024 28.5699 13.3698 26.9791C12.6941 25.8248 11.9057 24.794 10.9593 23.9294C10.0622 23.1094 9.25409 22.1852 8.31359 21.4185C7.75639 20.9627 7.13598 20.7498 6.46616 20.5794C5.56319 20.3494 4.64244 20.3046 3.73553 20.2834C3.08942 20.2684 2.44529 20.1194 1.79919 20.1982C1.3803 20.2493 0.963399 20.1364 0.546493 20.2237C0.307414 20.2748 0.198742 20.1236 0.153297 19.8681C-0.020578 18.914 -0.0225538 17.9556 0.0446253 16.993C0.048577 16.9483 0.0821666 16.895 0.0703114 16.8588C-0.198405 16.1113 0.360762 15.9047 0.775692 15.6066C0.947592 15.4831 1.10368 15.5704 1.24792 15.6683C2.36626 16.4201 3.52411 16.5756 4.78866 16.0836C5.4723 15.8174 6.19547 15.6556 6.88504 15.3894C8.15947 14.8995 9.25409 14.1201 10.2736 13.1596C11.1252 12.3567 11.8484 11.4431 12.5478 10.506C12.9727 9.93738 13.3362 9.30487 13.6622 8.65106C13.9863 8.00577 14.2668 7.34983 14.502 6.65981C14.7983 5.79516 14.9228 4.89431 15.0434 3.99772C15.1856 2.93714 15.3457 1.8723 15.2923 0.792552C15.2745 0.421988 15.4306 0.234576 15.7665 0.181335C16.5885 0.0514242 17.4144 0.0301275 18.2423 0.000311992C18.5505 -0.0103364 18.5979 0.253744 18.6098 0.462452C18.6355 0.920332 18.752 1.36969 18.6987 1.83183Z" fill="#0525C6"/>
</svg>
