<svg width="38" height="34" viewBox="0 0 38 34" fill="none" xmlns="http://www.w3.org/2000/svg">
<path d="M36.9464 25.348C36.9278 25.6959 36.9697 26.046 36.9208 26.3928C36.8522 26.8754 36.7463 27.3461 36.5311 27.7963C36.0691 28.7658 35.3315 29.5273 34.4635 30.1898C34.0911 30.4741 33.6723 30.696 33.2325 30.8856C32.7031 31.1129 32.1504 31.2659 31.5802 31.3725C31.301 31.4242 31.0136 31.4016 30.732 31.435C29.9804 31.5244 29.2218 31.5341 28.4666 31.5998C27.8849 31.6504 27.2961 31.6935 26.7132 31.6138C26.3828 31.5685 26.0535 31.5136 25.7242 31.4662C25.3984 31.4199 25.0715 31.3854 24.7515 31.3036C24.4257 31.2195 24.1046 31.128 23.7881 31.0138C23.5449 30.9255 23.3192 30.8124 23.0946 30.6928C22.7502 30.5108 22.4698 30.2609 22.2231 29.9797C21.7158 29.4024 21.2493 28.7949 20.657 28.2854C20.5174 28.1658 20.4383 28.0064 20.365 27.8491C20.2614 27.624 20.0718 27.4764 19.8682 27.3386C19.8088 27.2987 19.7611 27.3224 19.739 27.3838C19.7297 27.4075 19.7297 27.4344 19.7309 27.4603C19.7658 28.1841 19.6285 28.8929 19.49 29.5995C19.447 29.8214 19.3236 30.0271 19.2212 30.2339C19.1177 30.4451 19.0165 30.6562 18.9234 30.8716C18.7861 31.1851 18.6592 31.5028 18.5243 31.8174C18.4277 32.0457 18.3253 32.2719 18.2264 32.4992C18.0298 32.9484 17.6737 33.25 17.2095 33.46C16.7941 33.6474 16.3555 33.7692 15.9063 33.851C15.6527 33.8973 15.3897 33.906 15.1303 33.9178C14.7312 33.9361 14.3309 33.9447 13.9318 33.9512C13.2675 33.9609 12.6042 34.018 11.9387 33.9943C11.3616 33.9738 10.795 33.8736 10.2225 33.8101C9.72334 33.7552 9.23 33.6754 8.74598 33.5527C8.44346 33.4751 8.14094 33.3932 7.85122 33.2715C7.56965 33.153 7.27876 33.0518 6.99835 32.9268C6.59694 32.7469 6.21181 32.5455 5.84879 32.3032C5.46017 32.0436 5.11576 31.7473 4.84233 31.3843C4.47349 30.8932 4.13025 30.3847 3.88126 29.8332C3.71371 29.4616 3.6439 29.0588 3.56943 28.6602C3.47868 28.1733 3.51707 27.68 3.46006 27.1931C3.38792 26.5813 3.44261 25.9716 3.51474 25.3641C3.56594 24.9333 3.6788 24.511 3.81843 24.0952C3.98132 23.6094 4.19657 23.1441 4.43859 22.6896C4.5433 22.4935 4.67478 22.3115 4.7923 22.1208C5.16812 21.5111 5.61608 20.9467 6.08615 20.3995C6.4352 19.9924 6.80404 19.6003 7.17521 19.2082C7.53474 18.829 7.935 18.4886 8.30151 18.116C8.35619 18.0599 8.41437 18.0007 8.38412 17.9231C8.35038 17.8348 8.25613 17.851 8.17934 17.8499C7.73487 17.8424 7.30553 17.7486 6.87502 17.6571C6.56785 17.5925 6.26649 17.5031 5.97445 17.3996C5.66495 17.2898 5.35778 17.1702 5.05526 17.0399C4.55029 16.8223 4.06509 16.5702 3.5799 16.3214C3.25993 16.1577 2.95625 15.966 2.66071 15.7634C2.15691 15.4188 1.71825 15.0094 1.31102 14.5732C0.950325 14.1865 0.596612 13.7901 0.386013 13.3097C0.24988 12.9995 0.162615 12.6742 0.113747 12.3403C0.0427718 11.8545 -0.0282035 11.3687 0.0113565 10.8775C0.049753 10.3895 0.0997848 9.90265 0.20683 9.42116C0.271987 9.13033 0.351107 8.84488 0.461643 8.5659C0.574505 8.28261 0.717619 8.01332 0.874696 7.74942C1.16791 7.25931 1.49951 6.79291 1.88464 6.36204C2.15458 6.06044 2.4571 5.78469 2.72936 5.48632C3.41119 4.73877 4.1989 4.10433 5.07737 3.56036C5.57187 3.25445 6.07684 2.96685 6.61439 2.73311C6.92389 2.59847 7.24153 2.4789 7.55801 2.35718C8.02808 2.17514 8.50861 2.01896 8.98915 1.86277C9.40337 1.72813 9.82573 1.61287 10.2493 1.49977C10.6425 1.39528 11.0393 1.3048 11.4372 1.22402C11.8991 1.1303 12.3704 1.07645 12.8416 1.02797C13.2733 0.983811 13.7038 0.951497 14.1354 1.00643C14.5869 1.0646 15.0232 1.17447 15.4328 1.37266C16.0762 1.68504 16.6836 2.04696 17.2514 2.4649C17.5923 2.71588 17.8715 3.02394 18.1054 3.36217C18.43 3.83181 18.7419 4.31006 19.063 4.78294C19.2631 5.077 19.4667 5.36891 19.6738 5.65974C19.7309 5.73945 19.7506 5.82454 19.7553 5.9161C19.7611 6.03567 19.8018 6.14554 19.8647 6.24679C19.9729 6.42129 20.1497 6.41806 20.2603 6.24679C20.4057 6.02059 20.5011 5.77499 20.6047 5.53048C20.7303 5.23426 20.913 4.96497 21.105 4.70107C21.5623 4.07309 22.0463 3.46342 22.5978 2.90438C23.1714 2.32271 23.7695 1.76044 24.4955 1.33604C24.9202 1.08722 25.3786 0.906256 25.851 0.747914C26.3141 0.592804 26.7888 0.479703 27.2624 0.361216C27.7639 0.235189 28.2712 0.123165 28.7808 0.0305296C29.1159 -0.0297911 29.4533 0.00683219 29.7907 0.0746929C30.0525 0.127474 30.3143 0.188871 30.5796 0.231958C30.9263 0.28797 31.2626 0.384913 31.593 0.502323C31.9409 0.626196 32.2691 0.782384 32.5937 0.948265C32.9555 1.13354 33.2953 1.35004 33.642 1.55793C34.1063 1.83584 34.56 2.12775 35.0301 2.39596C35.5304 2.68141 36.0307 2.97332 36.4636 3.34924C36.7882 3.63038 37.0407 3.96538 37.2978 4.29714C37.4689 4.51903 37.6062 4.75816 37.7248 5.00483C37.8191 5.19979 37.897 5.40769 37.8982 5.62635C37.9029 6.43098 38.039 7.23131 37.989 8.03702C37.9622 8.47865 37.8959 8.91705 37.8005 9.35222C37.7237 9.7023 37.6306 10.0481 37.5224 10.3884C37.4258 10.6922 37.3514 11.0035 37.2315 11.3019C37.1768 11.4387 37.1547 11.5841 37.1047 11.7241C36.9988 12.016 36.9255 12.3187 36.8173 12.6106C36.7103 12.9025 36.5869 13.1912 36.4543 13.4745C36.2902 13.8246 36.1087 14.1682 35.9086 14.5021C35.5479 15.1032 35.1709 15.6956 34.7113 16.2385C34.2424 16.7921 33.7153 17.2962 33.0905 17.7023C32.6949 17.9598 32.2725 18.1741 31.8188 18.3335C31.7583 18.3551 31.6931 18.3615 31.6291 18.3755C31.5837 18.3852 31.5325 18.3939 31.5279 18.4488C31.5244 18.494 31.5674 18.5113 31.6047 18.5317C31.8258 18.6535 32.0771 18.6556 32.3203 18.6707C32.5844 18.6868 32.8473 18.6707 33.1103 18.7278C33.3639 18.7827 33.592 18.8861 33.8061 19.0121C34.133 19.2039 34.4041 19.4592 34.6822 19.7069C34.8661 19.8696 35.072 20.0117 35.2489 20.1841C35.5176 20.4458 35.7131 20.7518 35.8935 21.0684C36.0738 21.3873 36.2413 21.7115 36.4263 22.0282C36.6567 22.4235 36.8057 22.836 36.8429 23.2874C36.9011 23.9735 36.979 24.6597 36.9499 25.3501L36.9464 25.348ZM11.5873 23.9412L11.6176 23.9606C11.7351 23.8637 11.8573 23.771 11.9678 23.6676C12.3343 23.3272 12.7171 23.0095 13.2232 22.8522C13.2581 22.8414 13.2919 22.8253 13.3221 22.8048C13.727 22.5344 14.1959 22.3675 14.6195 22.1262C14.8405 22.0002 15.0837 21.9032 15.3362 21.8429C15.9459 21.6953 16.5544 21.5445 17.1757 21.4325C17.697 21.3388 18.2125 21.2979 18.7372 21.2979C19.1282 21.2979 19.5191 21.286 19.9089 21.3011C20.3312 21.3173 20.7548 21.3302 21.176 21.37C21.4901 21.3991 21.7542 21.5532 22.0416 21.6479C22.6455 21.8451 23.2645 22.0056 23.8265 22.3029C23.8544 22.3179 23.887 22.3266 23.9184 22.333C24.2058 22.3944 24.456 22.5258 24.6875 22.6863C24.9528 22.8694 25.2262 23.0375 25.545 23.1344C25.6649 23.171 25.7626 23.2475 25.8627 23.3186C26.0849 23.4791 26.3246 23.617 26.5329 23.799C26.5061 23.7236 26.4724 23.6547 26.4258 23.5933C26.235 23.3402 26.1326 23.0332 25.9045 22.8048C25.6556 22.5549 25.4473 22.2856 25.2925 21.9776C25.2157 21.8257 25.1413 21.6706 25.0482 21.5284C24.798 21.1471 24.6561 20.7281 24.5642 20.2983C24.4804 19.9073 24.4048 19.5119 24.3093 19.1263C24.1593 18.5242 24.0208 17.9253 23.9975 17.3081C23.9859 17.0033 23.9498 16.692 24.0161 16.3925C24.1639 15.7193 24.1755 15.0213 24.4466 14.3707C24.4653 14.3276 24.4688 14.2781 24.4781 14.2317C24.5502 13.8752 24.6794 13.5445 24.94 13.2634C25.0272 13.1697 25.104 13.0641 25.1401 12.9413C25.1843 12.7894 25.2646 12.6559 25.3495 12.5212C25.4682 12.3316 25.6451 12.1765 25.7254 11.9643C25.7731 11.8383 25.815 11.7112 25.865 11.5862C26.0779 11.0487 26.4235 10.577 26.7423 10.0922C26.7702 10.0502 26.8517 10.0039 26.7877 9.95112C26.7307 9.90373 26.6818 9.97697 26.6306 9.99959C26.4596 10.0772 26.342 10.2161 26.2082 10.3335C25.9022 10.6017 25.5241 10.7773 25.1948 11.0143C24.9795 11.1694 24.7364 11.2922 24.5293 11.4602C24.435 11.5367 24.321 11.5906 24.2011 11.6283C23.9917 11.695 23.8079 11.8006 23.6357 11.9288C23.3262 12.1604 22.9771 12.323 22.5827 12.3747C22.2418 12.4189 21.9055 12.4803 21.5704 12.5503C21.1876 12.63 20.7967 12.6569 20.4092 12.6688C19.7076 12.6914 19.0048 12.686 18.302 12.672C17.7529 12.6612 17.2107 12.5848 16.6847 12.4253C16.3671 12.3295 16.0646 12.183 15.7283 12.1517C15.1849 12.1022 14.7149 11.8835 14.253 11.6401C13.9504 11.4807 13.6665 11.2879 13.3291 11.192C12.937 11.08 12.56 10.9346 12.1947 10.7644C12.1563 10.7461 12.1214 10.7105 12.0632 10.7267C12.0702 10.745 12.0748 10.7611 12.0841 10.7751C12.3564 11.1672 12.6159 11.5636 12.7474 12.0203C12.7543 12.0451 12.7718 12.0667 12.7823 12.0904C12.9312 12.4221 13.0557 12.7636 13.2709 13.0673C13.3082 13.1201 13.3245 13.1858 13.3466 13.2472C13.4024 13.398 13.4501 13.551 13.5118 13.6996C13.8236 14.4558 13.9481 15.2475 13.997 16.0478C14.047 16.8632 13.9609 17.6722 13.8108 18.4757C13.7084 19.0229 13.6258 19.5733 13.3466 20.0764C13.2756 20.2046 13.2535 20.3532 13.2919 20.4932C13.3268 20.6214 13.2919 20.7194 13.2081 20.8142C12.8032 21.2785 12.5635 21.8278 12.2785 22.3546C12.0015 22.8662 11.9189 23.4489 11.5896 23.9423L11.5873 23.9412Z" fill="#0525C6"/>
</svg>
