<svg width="34" height="38" viewBox="0 0 34 38" fill="none" xmlns="http://www.w3.org/2000/svg">
<path d="M17.5517 24.5435C17.5517 25.3889 17.5365 26.1964 17.555 27.0058C17.5836 28.2549 17.6173 29.504 17.6795 30.7512C17.7754 32.6657 17.4928 34.5631 17.5214 36.4775C17.5365 37.4556 17.3397 37.6015 16.49 37.7096C16.1148 37.757 15.7951 38.0375 15.3846 37.9958C14.9943 37.956 14.7806 37.7854 14.752 37.3494C14.5652 34.491 14.2859 31.6289 14.4508 28.7667C14.5316 27.364 14.2102 25.9974 14.4609 24.6061C14.4121 24.5852 14.3616 24.5625 14.3129 24.5416C13.3824 25.4609 12.4486 26.3765 11.5216 27.2996C10.5373 28.2795 9.51941 29.2235 8.59908 30.2755C8.15658 30.7816 7.6838 31.2649 7.29346 31.8411C6.62551 32.8287 5.60591 33.439 4.97834 34.4891C4.71419 34.9327 4.38442 35.3251 4.10512 35.7591C3.83761 36.1742 3.50279 36.1989 3.16461 35.9525C2.90214 35.761 2.67668 35.4975 2.46132 35.2379C2.21063 34.9365 2.12818 34.6654 2.40243 34.2389C2.95934 33.3746 3.56167 32.5823 4.28179 31.8791C5.10789 31.0716 5.71864 30.031 6.42024 29.0889C7.14372 28.1146 7.76288 27.0475 8.59571 26.168C9.06682 25.6713 9.38817 25.0079 9.76169 24.4071C10.1167 23.8346 10.5642 23.3247 10.9125 22.6841C10.4145 22.432 9.97032 22.6973 9.5396 22.7561C8.19191 22.9362 6.84255 23.0442 5.4915 23.1731C3.92005 23.3247 2.33681 23.2679 0.773772 23.5484C0.263975 23.6394 0.0587097 23.3816 0.0216947 22.8016C-0.0641128 21.452 0.13947 20.1081 0.0351547 18.7585C-0.00690781 18.2183 0.312767 18.0269 0.760312 18.2903C0.883135 18.3624 0.977355 18.3567 1.09681 18.3396C2.00031 18.2031 2.92064 18.3396 3.8191 18.1084C4.66371 17.8904 5.52683 18.0098 6.37818 18.0041C7.66361 17.9965 8.92548 17.644 10.2126 17.7122C10.3018 17.716 10.4448 17.7425 10.4431 17.5795C10.4431 17.481 10.3859 17.3653 10.3236 17.2876C9.9047 16.7626 9.30237 16.5199 8.83463 16.0631C7.5492 14.8064 6.05346 13.8151 4.99853 12.276C4.40966 11.4173 3.80059 10.5511 3.62729 9.41946C3.57682 9.09344 3.62729 8.9854 3.88808 8.80343C4.41975 8.43381 4.90095 7.96563 5.37878 7.50692C5.71527 7.18279 6.01812 7.10697 6.40678 7.39698C7.76288 8.40917 9.07859 9.50855 10.5054 10.3767C12.1761 11.3946 13.2663 13.0853 14.6308 14.4652C14.7251 13.7696 14.5619 13.0834 14.4777 12.4086C14.291 10.8941 14.1446 9.39103 14.1463 7.85379C14.1463 7.03684 14.0773 6.19145 14.0891 5.37639C14.1042 4.38316 14.0268 3.3577 14.2388 2.38153C14.3633 1.8053 14.1379 1.2196 14.3953 0.650951C14.5013 0.417806 14.5686 0.302182 14.7974 0.262377C15.4889 0.141066 16.1888 0.163811 16.882 0.0216502C17.6021 -0.126198 17.9908 0.499312 17.7031 1.40535C17.3935 2.38532 17.4541 3.3994 17.3245 4.39264C17.0974 6.11184 17.301 7.82157 17.3245 9.5313C17.3531 11.5879 17.55 13.6388 17.5449 15.6784C17.6745 15.7712 17.7771 15.7068 17.8427 15.6423C18.9078 14.5979 20.1478 13.8397 21.3104 12.9564C21.6216 12.7195 21.9295 12.4864 22.2021 12.185C22.4578 11.9025 22.7927 11.6959 23.1729 11.7263C23.8896 11.7831 24.6047 11.8722 25.3198 11.9499C25.5267 11.9727 25.7252 12.022 25.7724 12.3044C25.8178 12.5717 25.7454 12.7783 25.552 12.9602C23.9166 14.4823 22.372 16.1257 20.7047 17.6061C20.279 17.9852 19.9324 18.4685 19.5858 19.0182C21.408 19.2058 23.1207 18.8495 24.8436 18.7358C26.6321 18.6182 28.4206 18.7168 30.2091 18.6599C31.0504 18.6334 31.8916 18.5784 32.7312 18.5292C33.2797 18.4969 33.7037 18.6732 33.7205 19.3821C33.7373 20.1043 34.0435 20.7696 33.9947 21.5051C33.9594 22.0358 33.8299 22.3391 33.2814 22.3201C31.4104 22.2557 29.5445 22.3941 27.6769 22.485C25.4308 22.595 23.183 22.6954 20.9369 22.8054C20.7636 22.813 20.5919 22.8679 20.4472 22.8945C21.1118 24.0962 22.1769 24.8468 23.1056 25.7017C24.0007 26.5262 24.9833 27.2465 25.8077 28.1829C26.548 29.0226 27.4616 29.6708 27.9865 30.7512C28.323 31.445 28.2944 31.6743 27.7056 32.0553C26.8116 32.6341 25.9625 32.5362 25.1582 31.7615C24.1959 30.8271 23.3311 29.7808 22.4292 28.7762C21.8118 28.0881 21.0126 27.6104 20.3547 26.9622C19.4882 26.1054 18.5056 25.423 17.5533 24.5416L17.5517 24.5435Z" fill="#0525C6"/>
</svg>
