<svg width="24" height="25" viewBox="0 0 24 25" fill="none" xmlns="http://www.w3.org/2000/svg">
<path d="M5.64196 1.473C5.80259 1.47157 5.81569 1.46444 5.86809 1.32396C5.88464 1.27975 5.91773 1.26406 5.95358 1.25194C6.00391 1.23482 6.02666 1.20131 6.01908 1.14925C6.00667 1.0644 6.057 1.05441 6.11353 1.07153C6.18661 1.09363 6.24314 1.09506 6.26865 1.0045C6.27072 0.99594 6.28382 0.985957 6.29347 0.983818C6.4224 0.960286 6.52926 0.879707 6.6506 0.838348C6.66094 0.834783 6.67266 0.829078 6.68231 0.831217C6.88914 0.871863 7.08839 0.795563 7.29177 0.787719C7.3552 0.784867 7.41311 0.811251 7.48412 0.782727C7.62753 0.724967 7.67992 0.593046 7.76128 0.481805C7.77437 0.463978 7.78196 0.428324 7.79575 0.426184C7.90537 0.411923 7.99706 0.33277 8.11082 0.335622C8.13633 0.336335 8.16115 0.342753 8.17838 0.363433C8.22802 0.423332 8.29145 0.432602 8.35901 0.414062C8.51827 0.36985 8.68581 0.354876 8.83059 0.262887C8.85196 0.249339 8.87402 0.23579 8.87954 0.20798C8.89057 0.149507 8.93262 0.140237 8.9733 0.156638C9.0519 0.188726 9.1298 0.173752 9.20909 0.170899C9.2801 0.16876 9.3518 0.164482 9.42281 0.180169C9.46349 0.18944 9.50623 0.181596 9.54208 0.157351C9.59655 0.12027 9.6648 0.108861 9.71651 0.12954C9.85233 0.183022 9.97574 0.113852 10.1047 0.108861C10.2301 0.104582 10.3535 0.0746326 10.4776 0.0646494C10.5638 0.0582317 10.6528 0.0988776 10.7445 0.093886C10.792 0.0917467 10.8334 0.086042 10.8623 0.0489615C10.9065 -0.00808538 10.9575 -0.00879847 11.0175 0.0140203C11.1374 0.0596578 11.265 0.0468223 11.3877 0.0667887C11.4229 0.0724934 11.4608 0.0646494 11.4939 0.0753457C11.5856 0.104582 11.6683 0.123123 11.7572 0.052527C11.8048 0.0147334 11.8717 0.0289951 11.9199 0.086042C11.9723 0.148081 12.0399 0.163768 12.1213 0.153072C12.2481 0.136671 12.375 0.115992 12.4998 0.185874C12.5852 0.234364 12.6893 0.210832 12.7845 0.22652C12.9906 0.261461 13.1988 0.250765 13.4064 0.243634C13.4705 0.241495 13.5325 0.243634 13.5877 0.286419C13.6146 0.307099 13.6483 0.324926 13.6808 0.308525C13.7904 0.252191 13.9041 0.286419 14.0034 0.317795C14.1482 0.363433 14.2923 0.337048 14.4357 0.357728C14.4957 0.366285 14.5543 0.376268 14.5956 0.414775C14.6618 0.476813 14.737 0.482518 14.8176 0.482518C14.8314 0.482518 14.8466 0.47824 14.8583 0.482518C15.0541 0.555966 15.2678 0.496067 15.4643 0.569515C15.4988 0.58235 15.5408 0.577359 15.5795 0.577359C15.6387 0.577359 15.7056 0.560244 15.7173 0.653659C15.7194 0.669347 15.7353 0.67933 15.7484 0.675765C15.8187 0.654372 15.8683 0.702149 15.9249 0.72782C15.9717 0.749212 16.0159 0.771318 16.0552 0.712845C16.0676 0.695018 16.0931 0.687887 16.0986 0.717124C16.1103 0.775597 16.1475 0.774884 16.1917 0.772031C16.3034 0.7649 16.393 0.842627 16.4998 0.857602C16.5584 0.865445 16.6129 0.85261 16.6681 0.850471C16.808 0.846192 16.9521 0.777023 17.0907 0.875429C17.1555 0.921066 17.2451 0.923205 17.2851 1.01519C17.3017 1.0537 17.3547 1.05085 17.3982 1.04372C17.4533 1.03516 17.4988 1.02019 17.5271 1.11003C17.5443 1.16494 17.6305 1.21557 17.7112 1.21272C17.7519 1.21129 17.7925 1.20131 17.8339 1.1956C17.9022 1.18633 17.9642 1.1792 17.9883 1.27404C18.0021 1.32966 18.0559 1.3318 18.1055 1.32895C18.1683 1.3261 18.2214 1.31826 18.2007 1.42451C18.1841 1.50865 18.2517 1.5878 18.3041 1.64485C18.3461 1.69049 18.3854 1.75324 18.4523 1.77392C18.462 1.77677 18.4771 1.78961 18.4758 1.79531C18.4551 1.9144 18.5592 1.90085 18.615 1.94078C18.6854 1.9907 18.7536 1.98285 18.8274 1.95789C18.8894 1.9365 18.9218 1.95789 18.9198 2.03063C18.9184 2.08696 18.9466 2.12119 18.9949 2.15114C19.0783 2.20391 19.1776 2.24669 19.1714 2.38075C19.1693 2.42924 19.2148 2.45991 19.2631 2.46347C19.3955 2.47417 19.5044 2.55617 19.6306 2.58684C19.6526 2.59183 19.6747 2.60466 19.6719 2.63247C19.6637 2.7045 19.7161 2.743 19.7616 2.76226C19.8863 2.8136 19.9215 2.93411 19.9863 3.03465C20.0394 3.11737 20.1056 3.19011 20.18 3.25357C20.2607 3.32203 20.3524 3.33772 20.4517 3.31704C20.5186 3.30349 20.5572 3.3206 20.5558 3.40189C20.5551 3.46179 20.662 3.56804 20.744 3.57589C20.8398 3.58587 20.9005 3.66859 20.9922 3.68214C21.0163 3.6857 21.0067 3.71423 21.0101 3.73277C21.0377 3.88679 21.0763 4.02798 21.2287 4.11141C21.2928 4.14636 21.3721 4.19699 21.4065 4.2469C21.4651 4.33176 21.5334 4.36099 21.6182 4.38738C21.6513 4.39736 21.6403 4.43444 21.6327 4.46225C21.6092 4.54497 21.6341 4.62626 21.6871 4.67547C21.7726 4.75462 21.7588 4.84162 21.7375 4.93289C21.7223 4.99707 21.7106 5.06125 21.7154 5.12685C21.7209 5.20672 21.7547 5.25663 21.8416 5.26661C21.9064 5.27375 21.9933 5.25877 22.005 5.36787C22.0077 5.39069 22.0326 5.39069 22.0525 5.39069C22.1822 5.39426 22.1925 5.39497 22.2084 5.51762C22.2221 5.62601 22.2601 5.71229 22.338 5.78503C22.3938 5.83708 22.3745 5.91338 22.38 5.9797C22.3855 6.04887 22.3959 6.1052 22.48 6.10449C22.5152 6.10449 22.5241 6.13159 22.5283 6.16296C22.5462 6.29489 22.5572 6.42966 22.6461 6.53805C22.651 6.54447 22.6592 6.55588 22.6572 6.55944C22.6 6.65214 22.6799 6.66712 22.7303 6.69778C22.784 6.73058 22.773 6.77978 22.7599 6.82614C22.7344 6.91527 22.7634 6.99585 22.7909 7.07572C22.804 7.11351 22.8344 7.14631 22.8709 7.15843C22.9516 7.18553 22.9826 7.23473 22.9571 7.3203C22.9495 7.34597 22.9502 7.37593 22.9709 7.39233C23.0467 7.45223 23.077 7.55705 23.168 7.60126C23.2039 7.61837 23.2108 7.65688 23.2032 7.68968C23.1736 7.81519 23.2432 7.89648 23.3197 7.97206C23.3576 8.00915 23.3687 8.04337 23.3514 8.09258C23.3301 8.15248 23.3452 8.21095 23.3673 8.26657C23.3845 8.31078 23.41 8.35071 23.4169 8.40063C23.4224 8.43985 23.4507 8.46409 23.4921 8.46837C23.5452 8.47408 23.5638 8.4969 23.5555 8.55894C23.5397 8.67018 23.5596 8.77857 23.6141 8.87982C23.6348 8.91833 23.6638 8.9604 23.6279 9.01246C23.6017 9.05097 23.6472 9.0531 23.6651 9.0581C23.7368 9.07735 23.7479 9.12227 23.7279 9.18788C23.6817 9.34048 23.7341 9.47953 23.7913 9.6143C23.8361 9.7177 23.852 9.81325 23.7844 9.91095C23.761 9.94518 23.7644 9.98083 23.7651 10.0222C23.7658 10.1598 23.8134 10.2846 23.8444 10.4144C23.8575 10.4714 23.8492 10.5313 23.8278 10.5898C23.7947 10.6804 23.8189 10.7752 23.8258 10.8686C23.834 10.9913 23.8389 11.1118 23.7927 11.228C23.7816 11.2551 23.7692 11.2908 23.7858 11.31C23.8423 11.3749 23.8237 11.4854 23.9133 11.5282C23.9306 11.5368 23.9278 11.5496 23.9237 11.5632C23.8947 11.6502 23.9409 11.7315 23.9437 11.8163C23.9437 11.8391 23.9616 11.8641 23.9774 11.8826C24.0057 11.9176 23.9947 11.934 23.9602 11.9532C23.8913 11.9924 23.8775 12.0416 23.923 12.1115C23.9926 12.2192 23.9947 12.3269 23.9499 12.4438C23.9078 12.5529 23.9519 12.6635 23.9588 12.7733C23.9637 12.8624 23.9781 12.9409 23.934 13.0336C23.8926 13.1205 23.914 13.2346 23.9547 13.3302C23.9802 13.3901 23.9947 13.4422 23.9719 13.5092C23.9499 13.5755 23.9602 13.6461 23.974 13.7181C24.0064 13.8885 24.0257 14.0632 23.9244 14.2208C23.8857 14.28 23.8692 14.3349 23.9113 14.402C23.9354 14.4405 23.9319 14.4947 23.9002 14.5218C23.803 14.6031 23.834 14.7271 23.7954 14.827C23.7603 14.9197 23.7617 15.0216 23.7375 15.1165C23.7272 15.1571 23.7348 15.1871 23.7554 15.2199C23.7913 15.2762 23.7865 15.3304 23.7658 15.3967C23.7327 15.5051 23.743 15.6213 23.7768 15.7304C23.7934 15.7846 23.792 15.8367 23.7637 15.8781C23.7306 15.9251 23.721 15.975 23.7155 16.0278C23.7065 16.1134 23.6713 16.1783 23.6052 16.2367C23.479 16.348 23.4328 16.5006 23.4052 16.6682C23.3818 16.8079 23.357 16.9562 23.237 17.0546C23.2129 17.0746 23.1936 17.101 23.188 17.1317C23.1743 17.2087 23.1439 17.2771 23.0929 17.3356C23.0702 17.3613 23.057 17.3926 23.0701 17.4304C23.0929 17.4953 23.0722 17.5474 23.0226 17.5895C22.9681 17.6351 22.9371 17.6879 22.944 17.7656C22.9516 17.844 22.8992 17.8989 22.8509 17.9489C22.7296 18.0736 22.6627 18.2234 22.6475 18.3974C22.6372 18.5158 22.5938 18.6163 22.5117 18.699C22.4876 18.7233 22.4648 18.7482 22.4655 18.786C22.4655 18.9115 22.4062 19.0071 22.3207 19.0877C22.2752 19.1304 22.2504 19.1775 22.2559 19.2452C22.2608 19.3059 22.2428 19.3643 22.1959 19.4071C22.1477 19.4513 22.1325 19.5176 22.1174 19.574C22.0753 19.7287 21.9829 19.8442 21.8809 19.9562C21.8505 19.989 21.8409 20.0261 21.8416 20.0724C21.8436 20.1516 21.823 20.2115 21.7361 20.25C21.6596 20.2842 21.5899 20.3555 21.5548 20.4382C21.5134 20.5374 21.4196 20.5723 21.3562 20.6436C21.3404 20.6614 21.3121 20.6721 21.3107 20.6992C21.3052 20.8012 21.2307 20.8575 21.1742 20.9253C21.1487 20.9559 21.1239 20.983 21.1218 21.028C21.1142 21.1699 21.0411 21.2619 20.9026 21.2911C20.835 21.3054 20.7916 21.3339 20.7543 21.3959C20.7088 21.4715 20.613 21.4922 20.5585 21.5635C20.502 21.6377 20.4344 21.6997 20.3586 21.7532C20.2979 21.796 20.2745 21.8708 20.2283 21.9272C20.1538 22.0192 20.0559 22.0655 19.9601 22.1211C19.9532 22.1254 19.9422 22.1247 19.9374 22.1304C19.845 22.2267 19.7099 22.2516 19.6133 22.3493C19.5237 22.4399 19.4168 22.5105 19.352 22.6274C19.3348 22.6581 19.2927 22.6759 19.2596 22.6959C19.0866 22.7971 18.9742 22.9697 18.8246 23.0995C18.6791 23.2264 18.5433 23.3548 18.3558 23.4139C18.2565 23.4453 18.171 23.5124 18.1083 23.6051C18.0869 23.6364 18.0538 23.6607 18.0221 23.6835C17.9732 23.7177 17.938 23.7569 17.9125 23.8161C17.8718 23.9103 17.7877 23.9609 17.6898 23.9723C17.6009 23.9823 17.5168 23.9887 17.4595 24.0757C17.434 24.1149 17.3858 24.122 17.3492 24.0892C17.2658 24.0137 17.1755 24.05 17.0934 24.0771C17.0031 24.1071 16.928 24.1777 16.8322 24.2005C16.8225 24.2026 16.8135 24.2126 16.8073 24.2212C16.7081 24.3609 16.5819 24.4729 16.4654 24.5955C16.4392 24.6233 16.4116 24.6426 16.3744 24.6497C16.3406 24.6561 16.313 24.6718 16.2965 24.7061C16.2868 24.7253 16.2758 24.751 16.2475 24.7417C16.2268 24.7346 16.2241 24.7118 16.2199 24.6925C16.1903 24.552 16.1731 24.5449 16.0524 24.6255C16.0221 24.6462 15.989 24.6711 15.9531 24.659C15.8773 24.6319 15.8125 24.6611 15.747 24.6897C15.6663 24.7246 15.5815 24.7367 15.4967 24.7339C15.294 24.7275 15.1162 24.7959 14.9514 24.9114C14.9231 24.9314 14.8969 24.9307 14.8659 24.9193C14.7197 24.8637 14.5722 24.8451 14.4178 24.8922C14.2957 24.9293 14.1709 24.9385 14.0558 24.858C13.9889 24.8109 13.9324 24.8244 13.8855 24.8929C13.8083 25.0063 13.607 25.0441 13.4629 24.935C13.3802 24.8722 13.2836 24.8501 13.1844 24.8957C13.1368 24.9178 13.0823 24.9193 13.0375 24.9514C13.0154 24.9671 12.9955 24.9499 12.9775 24.9364C12.9162 24.8922 12.8465 24.8644 12.7797 24.8309C12.7348 24.8087 12.6969 24.8166 12.6569 24.8465C12.5728 24.9093 12.488 24.9243 12.3805 24.8872C12.284 24.8537 12.175 24.8287 12.0675 24.8708C12.0454 24.8793 12.0158 24.8815 11.9944 24.8736C11.8648 24.8259 11.7345 24.858 11.6035 24.8615C11.4753 24.8644 11.3484 24.8209 11.2346 24.7574C11.1505 24.7103 11.0781 24.6668 10.9733 24.6968C10.8989 24.7182 10.8182 24.6861 10.7472 24.6426C10.6307 24.5706 10.5107 24.51 10.3694 24.5135C10.3149 24.515 10.2632 24.5385 10.206 24.5249C10.1715 24.5164 10.1619 24.5499 10.1577 24.5798C10.155 24.5998 10.1509 24.6205 10.126 24.6233C10.1053 24.6255 10.0971 24.6091 10.0922 24.5927C10.0619 24.4907 9.97918 24.4586 9.89369 24.4201C9.80062 24.378 9.72133 24.3082 9.66342 24.2197C9.62481 24.1606 9.58758 24.1192 9.50899 24.1463C9.46762 24.1606 9.4235 24.1384 9.38213 24.1192C9.28286 24.0714 9.18909 24.0165 9.06982 24.0743C9.01949 24.0985 8.95055 24.0757 8.90436 24.0251C8.84713 23.9623 8.77612 23.9295 8.69408 23.9181C8.66788 23.9145 8.64582 23.9124 8.62582 23.9324C8.57481 23.9823 8.5231 23.9666 8.47691 23.9274C8.38108 23.8468 8.28524 23.8425 8.17976 23.9074C8.12737 23.9395 8.06669 23.9409 8.01774 23.8981C7.96328 23.8496 7.89916 23.8347 7.83367 23.839C7.72749 23.8454 7.63856 23.8097 7.56272 23.737C7.52687 23.7027 7.49584 23.6871 7.44551 23.7085C7.39725 23.7298 7.36071 23.7113 7.31728 23.6678C7.2118 23.5616 7.09321 23.4689 6.95395 23.4111C6.94361 23.4068 6.92844 23.4082 6.92292 23.4011C6.79952 23.2435 6.59475 23.2121 6.45618 23.0752C6.39275 23.0125 6.35138 22.9383 6.30588 22.8677C6.21557 22.7272 6.09698 22.6353 5.94117 22.601C5.84534 22.5804 5.78743 22.5169 5.72951 22.4491C5.6847 22.3971 5.63713 22.3572 5.57025 22.3336C5.49511 22.3072 5.44271 22.2509 5.39169 22.181C5.32344 22.0876 5.27242 21.9699 5.15659 21.9193C5.11592 21.9015 5.10213 21.8573 5.07248 21.8273C4.97045 21.7268 4.86152 21.6319 4.75741 21.535C4.62918 21.4166 4.50301 21.2676 4.30583 21.2576C4.2817 21.2562 4.25895 21.2412 4.23413 21.2569C4.21552 21.2683 4.19759 21.2661 4.18449 21.2447C4.11417 21.1314 4.02179 21.0379 3.90527 20.9852C3.80875 20.9417 3.7467 20.8875 3.71499 20.7812C3.69913 20.7299 3.62467 20.7427 3.57779 20.7249C3.49644 20.6935 3.43301 20.6315 3.35717 20.5908C3.31925 20.5709 3.30133 20.5024 3.31994 20.4432C3.34683 20.357 3.33166 20.2899 3.24755 20.2414C3.18757 20.2065 3.13793 20.153 3.11449 20.0831C3.09381 20.0218 3.04003 19.9933 3.00349 19.9476C2.93593 19.8621 2.86699 19.7786 2.79528 19.6973C2.75874 19.6553 2.75116 19.6082 2.74978 19.5562C2.74496 19.39 2.69394 19.3394 2.53606 19.3187C2.44229 19.3066 2.35681 19.2638 2.292 19.1868C2.22168 19.1026 2.15342 19.0178 2.06862 18.9472C2.01209 18.9001 1.979 18.8395 2.01829 18.7596C2.03001 18.7361 2.03415 18.7054 2.0176 18.6855C1.95969 18.6177 1.95486 18.5286 1.92315 18.4509C1.89971 18.3938 1.87351 18.3439 1.81974 18.3118C1.79078 18.294 1.76596 18.2697 1.76044 18.2334C1.74252 18.1257 1.70115 18.0351 1.60877 17.9724C1.56947 17.946 1.54534 17.9025 1.52742 17.8562C1.50191 17.7913 1.50742 17.7028 1.40056 17.7007C1.3716 17.7007 1.34678 17.6358 1.35506 17.6087C1.39298 17.4846 1.31024 17.409 1.25509 17.327C1.19718 17.24 1.18615 17.1416 1.17167 17.0454C1.16408 16.994 1.14823 16.9598 1.10962 16.9334C0.996552 16.8571 0.884174 16.7794 0.836604 16.6382C0.831777 16.6247 0.813163 16.614 0.798685 16.6075C0.688375 16.5569 0.641494 16.4278 0.720089 16.3359C0.774554 16.2724 0.744219 16.2353 0.71871 16.1882C0.705611 16.164 0.686307 16.1398 0.664245 16.1255C0.562898 16.0635 0.538768 15.9643 0.542905 15.8552C0.544973 15.7975 0.522222 15.769 0.473961 15.7561C0.395366 15.7354 0.391919 15.6741 0.396745 15.6092C0.398124 15.59 0.407086 15.5707 0.413981 15.5522C0.474651 15.3782 0.476719 15.376 0.326423 15.2641C0.271957 15.2234 0.273336 15.16 0.247827 15.1086C0.204393 15.0209 0.117524 14.9817 0.0658167 14.9054C0.00859369 14.822 0.0223824 14.7343 0.0582329 14.6544C0.0851208 14.5945 0.0851208 14.5481 0.052028 14.4954C0.0320344 14.464 0.015488 14.4276 0.0272084 14.3906C0.0761582 14.238 0.036171 14.0789 0.0561646 13.9278C0.0734005 13.7994 0.0161775 13.6825 0.0416865 13.5598C0.0430654 13.5548 0.0423759 13.5477 0.0403076 13.5427C-0.0438033 13.3623 0.0341027 13.1712 0.00790425 12.9872C0.00445709 12.9622 0.00928312 12.9337 0.0278978 12.9259C0.0982201 12.8945 0.0775371 12.8346 0.0761582 12.7804C0.072711 12.6371 0.0492703 12.4952 0.0989095 12.3511C0.12304 12.282 0.114077 12.1935 0.0844314 12.1165C0.0630589 12.0609 0.0547857 12.0067 0.101667 11.9575C0.115456 11.9425 0.12235 11.9233 0.117524 11.9019C0.093394 11.7978 0.137518 11.6922 0.109251 11.5874C0.0968412 11.5403 0.125108 11.5161 0.167163 11.5004C0.29333 11.4541 0.287125 11.4206 0.277473 11.2822C0.265752 11.1203 0.218871 10.9642 0.220939 10.803C0.222318 10.7132 0.180263 10.639 0.170611 10.5542C0.160269 10.4664 0.185778 10.3923 0.215424 10.3167C0.227834 10.2853 0.228523 10.2604 0.212666 10.229C0.184399 10.1726 0.167853 10.1128 0.189915 10.0479C0.203014 10.0086 0.191294 9.97798 0.164406 9.94731C0.116145 9.89098 0.138207 9.82966 0.140276 9.76191C0.144412 9.63926 0.216113 9.53444 0.201635 9.40965C0.192672 9.33477 0.200256 9.25633 0.208529 9.18075C0.213355 9.13582 0.251274 9.1073 0.289883 9.0909C0.354 9.0638 0.385024 9.01103 0.411912 8.94971C0.443626 8.87768 0.47534 8.80281 0.556693 8.77215C0.596681 8.75717 0.595302 8.71938 0.595302 8.68586C0.595302 8.60814 0.613916 8.54467 0.678034 8.49191C0.736636 8.44413 0.723536 8.36141 0.724915 8.29295C0.726294 8.23876 0.738014 8.2138 0.780759 8.17244C0.832467 8.12253 0.868317 8.02983 0.855218 7.94354C0.843498 7.86867 0.859355 7.82517 0.931056 7.7995C0.984832 7.78096 0.993794 7.73175 0.983453 7.6797C0.966906 7.59413 0.956565 7.51355 1.04619 7.45793C1.07515 7.4401 1.08618 7.40017 1.07584 7.36523C1.04205 7.25541 1.07653 7.14488 1.06756 7.03436C1.0655 7.00655 1.06687 6.97089 1.08894 6.95378C1.17098 6.89174 1.16408 6.7969 1.16891 6.71347C1.17649 6.58939 1.20752 6.47316 1.24544 6.35692C1.25164 6.3391 1.25233 6.31699 1.24957 6.29845C1.24199 6.24782 1.25923 6.21645 1.30611 6.20005C1.34678 6.18578 1.36747 6.15797 1.36954 6.11091C1.37298 6.01393 1.4047 5.9305 1.48053 5.86632C1.52742 5.8271 1.5412 5.76506 1.55224 5.7073C1.56465 5.64526 1.5874 5.59891 1.64462 5.5654C1.70805 5.52832 1.76527 5.47911 1.737 5.38713C1.72666 5.3529 1.7501 5.35147 1.77285 5.34577C1.89144 5.31867 1.91832 5.28444 1.9004 5.1675C1.89213 5.11188 1.92246 5.08763 1.96176 5.0862C2.0831 5.0805 2.17893 4.99136 2.29889 4.98209C2.3244 4.97995 2.34784 4.96498 2.35612 4.9386C2.37818 4.86729 2.44229 4.80667 2.45402 4.7482C2.48435 4.59774 2.60017 4.47794 2.59121 4.3175C2.58845 4.26116 2.61879 4.23763 2.66567 4.22123C2.77184 4.18344 2.80287 4.1435 2.80149 4.02014C2.80149 3.95097 2.82631 3.936 2.88422 3.94099C2.99108 3.94954 3.06623 3.89178 3.08623 3.78696C3.0945 3.74489 3.11449 3.71423 3.15034 3.69283C3.20136 3.66146 3.23514 3.6094 3.2379 3.55449C3.24273 3.47534 3.27996 3.41045 3.29857 3.33772C3.30822 3.29921 3.33649 3.29279 3.36131 3.2985C3.47438 3.32417 3.57848 3.29493 3.68465 3.25928C3.71982 3.24715 3.76118 3.25143 3.79979 3.25143C3.93354 3.25143 4.01834 3.17014 4.0142 3.03038C4.01145 2.94195 4.03489 2.87635 4.1059 2.82572C4.14175 2.80005 4.1707 2.76511 4.19552 2.7266C4.22241 2.68453 4.26033 2.65814 4.31135 2.65601C4.40994 2.65173 4.49198 2.59254 4.58368 2.56473C4.63125 2.55047 4.64641 2.49699 4.65469 2.44707C4.67192 2.34225 4.71398 2.29447 4.81533 2.28805C4.90633 2.28235 4.98079 2.22815 5.06766 2.21318C5.11178 2.20605 5.10558 2.16112 5.10213 2.12832C5.09523 2.05915 5.08351 1.99141 5.16625 1.95789C5.17797 1.9529 5.18831 1.93008 5.18969 1.91511C5.19658 1.82169 5.24415 1.74325 5.27311 1.6584C5.29035 1.60777 5.3131 1.58923 5.3586 1.58709C5.40341 1.58495 5.45167 1.57925 5.47925 1.54074C5.52751 1.473 5.58818 1.44946 5.65092 1.46444L5.64196 1.473Z" fill="white"/>
</svg>
