<svg width="16" height="15" viewBox="0 0 16 15" fill="none" xmlns="http://www.w3.org/2000/svg">
<path d="M0.243827 6.99266C0.16799 7.07538 0.169369 7.08465 0.245896 7.15952C0.286572 7.19946 0.341038 7.21728 0.378956 7.26506C0.440316 7.34279 0.521669 7.35848 0.6175 7.32496C0.652661 7.31284 0.7154 7.29644 0.723673 7.37559C0.726431 7.40411 0.75194 7.40696 0.773313 7.41124C0.830535 7.42337 0.879485 7.39983 0.914647 7.35848C0.97118 7.29145 1.02771 7.29287 1.10562 7.31783C1.17112 7.33922 1.25523 7.39912 1.30556 7.36275C1.41173 7.28645 1.50135 7.29287 1.62201 7.32139C1.73783 7.34849 1.8702 7.36418 1.99292 7.31426C2.01154 7.30642 2.03567 7.31284 2.05773 7.31426C2.16597 7.32211 2.2749 7.35776 2.38107 7.29786C2.40934 7.28218 2.44519 7.28004 2.47759 7.29715C2.53826 7.32924 2.59618 7.31355 2.65064 7.28218C2.68856 7.26007 2.7182 7.25722 2.75681 7.2836C2.79956 7.31284 2.85333 7.31141 2.90159 7.3C2.98088 7.28146 3.0581 7.28004 3.14083 7.28146C3.28768 7.28431 3.43108 7.37702 3.58069 7.30143C3.58896 7.29715 3.60275 7.30286 3.61309 7.30642C3.73167 7.34707 3.85508 7.32068 3.97573 7.33637C4.01779 7.34207 4.04536 7.30357 4.08604 7.30927C4.19221 7.32425 4.30114 7.30785 4.40525 7.33851C4.46592 7.35634 4.51901 7.3328 4.57347 7.31426C4.67068 7.28075 4.76858 7.2615 4.86855 7.30072C4.93267 7.32567 5.00092 7.33922 5.05883 7.37915C5.08365 7.39627 5.11192 7.39912 5.13674 7.37987C5.19327 7.33566 5.24498 7.35348 5.29738 7.387C5.33047 7.40839 5.36908 7.4362 5.40493 7.41124C5.51937 7.33209 5.6676 7.35277 5.7786 7.2672C5.81652 7.23796 5.85858 7.2237 5.90477 7.26078C5.93097 7.28146 5.96682 7.28218 6.0006 7.27291C6.16262 7.23083 6.31843 7.23654 6.45907 7.34279C6.49906 7.37274 6.53698 7.38129 6.57903 7.34707C6.64108 7.29786 6.70451 7.30713 6.76035 7.35562C6.79276 7.38343 6.83068 7.37987 6.86446 7.39199C6.92306 7.41338 6.9534 7.33851 6.99683 7.35919C7.09266 7.40554 7.19677 7.39698 7.29467 7.42265C7.33672 7.43406 7.37809 7.43264 7.41463 7.4091C7.47185 7.37131 7.52356 7.38129 7.57458 7.4198C7.60491 7.44262 7.64214 7.46544 7.67316 7.44048C7.74142 7.38557 7.79657 7.42408 7.85449 7.45546C7.88137 7.47043 7.90757 7.48612 7.93929 7.48469C8.11164 7.4797 8.28056 7.50965 8.45154 7.52676C8.48118 7.52962 8.51772 7.53175 8.5384 7.54958C8.58735 7.59237 8.63424 7.58666 8.6825 7.55814C8.73765 7.52534 8.7928 7.53104 8.84934 7.55172C8.87829 7.5617 8.90725 7.56456 8.93828 7.5667C9.13821 7.58025 9.33746 7.58666 9.5367 7.6102C9.72699 7.6323 9.91865 7.64514 10.1076 7.58595C10.1682 7.5667 10.2268 7.58025 10.2758 7.62874C10.3461 7.69862 10.4316 7.69648 10.5129 7.66225C10.564 7.64086 10.6067 7.63515 10.6529 7.66368C10.6943 7.68935 10.7343 7.68436 10.7791 7.66867C10.9114 7.6216 11.0604 7.63515 11.1776 7.66867C11.3458 7.71787 11.5223 7.72999 11.6864 7.79488C11.7353 7.81414 11.7918 7.77848 11.8408 7.80487C11.8918 7.83196 11.9297 7.80986 11.978 7.78989C12.0497 7.76066 12.1069 7.67794 12.2007 7.71645C12.2903 7.75353 12.3834 7.77135 12.4813 7.77135C12.5344 7.77135 12.6005 7.75139 12.6199 7.83981C12.6378 7.92039 12.5992 7.96175 12.5385 7.99669C12.5157 8.00952 12.493 8.02378 12.4868 8.05801C12.4737 8.13645 12.4047 8.1935 12.3275 8.19564C12.2724 8.19706 12.2269 8.20847 12.1779 8.24627C12.1297 8.28335 12.049 8.26766 12.0621 8.37605C12.0655 8.40529 11.9945 8.45948 11.9311 8.45877C11.8939 8.45877 11.8546 8.4716 11.8546 8.51724C11.8546 8.60994 11.7939 8.65415 11.7257 8.66628C11.6402 8.68125 11.5664 8.72689 11.4823 8.74044C11.4361 8.74757 11.4106 8.77609 11.4106 8.82743C11.4106 8.86309 11.3975 8.90088 11.3644 8.91158C11.2844 8.93796 11.221 9.00642 11.1307 9.00927C11.1093 9.00927 11.07 9.00927 11.0707 9.05206C11.0714 9.13335 11.0217 9.15759 10.9556 9.16829C10.9245 9.17328 10.8742 9.16829 10.8708 9.20608C10.8632 9.3052 10.7984 9.28666 10.7391 9.28809C10.7163 9.28809 10.677 9.27169 10.675 9.30377C10.6701 9.37294 10.6274 9.38649 10.5764 9.39648C10.5474 9.40218 10.5426 9.42286 10.535 9.45067C10.5033 9.56762 10.4626 9.67957 10.3144 9.68028C10.2978 9.68028 10.2785 9.69597 10.2661 9.70952C10.1593 9.82932 10.0097 9.89278 9.90072 10.0154C9.82351 10.1024 9.68976 10.1252 9.61323 10.2294C9.59324 10.2565 9.56428 10.2707 9.55601 10.3121C9.5436 10.3713 9.50844 10.4155 9.43812 10.4019C9.40709 10.3955 9.38089 10.4141 9.35262 10.4212C9.27334 10.4404 9.23956 10.5346 9.15614 10.5424C9.14993 10.5424 9.14028 10.5524 9.1389 10.5588C9.11615 10.6544 9.0279 10.6693 8.96378 10.7143C8.9038 10.7563 8.82452 10.7642 8.7735 10.8134C8.71076 10.8747 8.63906 10.8854 8.56184 10.8861C8.4998 10.8861 8.45981 10.9032 8.46601 10.9788C8.46808 11.0073 8.45498 11.0373 8.43085 11.053C8.36053 11.0986 8.33364 11.1649 8.31985 11.2469C8.30744 11.3197 8.20817 11.4159 8.1668 11.4002C8.08889 11.371 8.01512 11.4131 7.9386 11.4024C7.90619 11.3981 7.88206 11.4052 7.87999 11.4516C7.87724 11.5001 7.8407 11.5172 7.79657 11.5093C7.71246 11.4944 7.63387 11.5315 7.55183 11.5322C7.52838 11.5322 7.50977 11.5443 7.51184 11.575C7.51529 11.6406 7.48012 11.6669 7.42083 11.6698C7.37188 11.6726 7.35189 11.6905 7.37257 11.7461C7.39257 11.8003 7.36981 11.8474 7.32362 11.878C7.2988 11.8944 7.27674 11.9151 7.26985 11.9401C7.24916 12.0135 7.20366 12.0363 7.13403 12.0342C7.08646 12.0328 7.05888 12.0499 7.09473 12.1062C7.11266 12.1333 7.10852 12.1654 7.08232 12.1918C7.012 12.2617 6.94857 12.3401 6.84447 12.3636C6.80724 12.3722 6.76863 12.3971 6.75415 12.4428C6.73347 12.5062 6.68383 12.5405 6.63212 12.5726C6.60868 12.5868 6.57765 12.594 6.57283 12.6268C6.56249 12.6966 6.51492 12.7565 6.52595 12.8321C6.52939 12.8549 6.52595 12.8828 6.50526 12.8942C6.43494 12.932 6.37565 12.9847 6.31153 13.0311C6.23363 13.0874 6.10953 13.086 6.09022 13.2172C6.08954 13.2236 6.0785 13.2329 6.0723 13.2329C5.98888 13.2329 5.93993 13.2714 5.93028 13.3598C5.92959 13.3684 5.9158 13.3769 5.90684 13.3826C5.85099 13.4218 5.831 13.4782 5.81445 13.5452C5.79722 13.6179 5.811 13.7092 5.72965 13.7577C5.72069 13.7627 5.71655 13.7934 5.72276 13.8048C5.78067 13.9096 5.73103 13.9866 5.66829 14.0651C5.63037 14.1121 5.63382 14.1535 5.69173 14.1913C5.80825 14.2669 5.90063 14.3717 5.99302 14.4751C6.00956 14.4936 6.0268 14.4958 6.04817 14.5015C6.18675 14.5385 6.33911 14.4494 6.47148 14.5485C6.4832 14.5571 6.51009 14.5492 6.52733 14.5435C6.57697 14.5257 6.62523 14.505 6.67349 14.4851C6.81413 14.428 6.9072 14.2982 7.04854 14.2355C7.17539 14.1791 7.26709 14.0572 7.37326 13.9631C7.38774 13.9502 7.40911 13.9324 7.40911 13.9174C7.40773 13.7834 7.52769 13.7492 7.59871 13.6807C7.64697 13.6343 7.68971 13.5866 7.72901 13.5331C7.74073 13.5174 7.749 13.4967 7.76417 13.4867C7.85586 13.429 7.90895 13.3356 7.97583 13.2536C8.02615 13.1915 8.04132 13.071 8.16404 13.0974C8.16887 13.0988 8.17645 13.0867 8.18335 13.0824C8.2385 13.0489 8.29779 13.0211 8.34881 12.9826C8.41362 12.9334 8.50186 12.9298 8.55564 12.8649C8.63079 12.7737 8.75006 12.7351 8.81487 12.6296C8.83003 12.6047 8.86864 12.5904 8.90311 12.5883C8.9369 12.5861 8.96585 12.5733 8.99343 12.5519C9.10512 12.4656 9.22094 12.3843 9.33125 12.2966C9.36779 12.2681 9.41743 12.2417 9.42846 12.1946C9.45811 12.0663 9.57049 12.0221 9.65184 11.9493C9.78076 11.8345 9.9545 11.7932 10.0841 11.6734C10.1344 11.627 10.1986 11.5842 10.2854 11.5992C10.3509 11.6106 10.4144 11.5707 10.444 11.4994C10.4626 11.4552 10.4943 11.4273 10.5322 11.401C10.5984 11.356 10.6729 11.3118 10.6881 11.2241C10.7025 11.1428 10.7598 11.12 10.8184 11.1C10.8901 11.0758 10.9528 11.0458 11.0024 10.9817C11.0369 10.9367 11.0934 10.9118 11.15 10.9446C11.2093 10.9788 11.2568 10.9539 11.2886 10.9104C11.3416 10.839 11.4147 10.8027 11.4864 10.762C11.5485 10.7264 11.5912 10.6779 11.5795 10.598C11.574 10.5602 11.5954 10.5338 11.6091 10.5032C11.6602 10.3919 11.7712 10.3385 11.8498 10.2336C11.8429 10.2864 11.8491 10.3242 11.8987 10.3335C11.9497 10.3427 11.9745 10.3099 11.9966 10.2721C12.0069 10.255 12.0145 10.2358 12.0283 10.2222C12.0711 10.1802 12.1159 10.1452 12.1821 10.1666C12.2806 10.1973 12.3627 10.1623 12.4344 10.0917C12.502 10.0254 12.5282 9.91703 12.6357 9.89065C12.7088 9.87282 12.7481 9.81149 12.7695 9.7409C12.7846 9.69241 12.8129 9.65533 12.8494 9.62466C12.9632 9.52768 13.0914 9.46208 13.2397 9.44639C13.2741 9.44283 13.3127 9.43641 13.3293 9.40931C13.3899 9.31162 13.4872 9.25172 13.5568 9.16686C13.6271 9.08129 13.6836 9 13.7815 8.93154C13.8946 8.85168 14.0049 8.74258 14.0952 8.6242C14.138 8.56787 14.1876 8.5151 14.2579 8.50084C14.3145 8.48943 14.3545 8.45592 14.3855 8.41384C14.4379 8.34325 14.5075 8.29191 14.5661 8.22915C14.6799 8.10722 14.8171 8.0081 14.9108 7.86762C14.9743 7.77349 15.0563 7.71074 15.1494 7.65369C15.2128 7.61519 15.3004 7.57311 15.3011 7.48612C15.3011 7.3271 15.3996 7.18092 15.35 7.01762C15.3452 7.00265 15.35 6.98339 15.3541 6.96699C15.4086 6.75592 15.3279 6.59262 15.1859 6.45072C15.1535 6.41863 15.1315 6.38012 15.1597 6.33734C15.2094 6.26175 15.1563 6.25533 15.1073 6.25248C15.0515 6.24963 14.9936 6.2589 14.9846 6.17618C14.9825 6.15407 14.9584 6.15122 14.9398 6.14409C14.8309 6.1013 14.7212 6.05995 14.613 6.0136C14.5613 5.99149 14.5151 5.95869 14.502 5.89594C14.4958 5.86527 14.4772 5.84602 14.451 5.83318C14.431 5.8232 14.4048 5.81607 14.4076 5.78826C14.411 5.74476 14.38 5.7469 14.3558 5.72907C14.2883 5.6813 14.2235 5.62568 14.169 5.56364C14.1483 5.54082 14.1338 5.51515 14.1042 5.5073C14.0697 5.49803 14.0504 5.47593 14.0318 5.44455C13.9753 5.34971 13.936 5.24417 13.8684 5.15647C13.856 5.14006 13.8553 5.12509 13.8663 5.11011C13.9015 5.06305 13.8615 5.05592 13.8339 5.05022C13.7367 5.03168 13.6492 4.97677 13.5464 4.98105C13.5113 4.98247 13.4747 4.9732 13.4444 4.95181C13.3182 4.86125 13.1962 4.76498 13.0652 4.68012C13.0211 4.6516 12.9749 4.62664 12.9315 4.59741C12.9101 4.58314 12.8805 4.57245 12.8867 4.54321C12.8991 4.48046 12.8577 4.44552 12.8315 4.39988C12.7943 4.33499 12.715 4.31502 12.6847 4.25512C12.6454 4.17668 12.6061 4.12891 12.513 4.1232C12.4516 4.11964 12.3951 4.07899 12.3393 4.0412C12.2855 4.00554 12.2496 3.97702 12.2214 3.9157C12.2027 3.87434 12.1772 3.80731 12.1179 3.80659C12.0269 3.80659 11.9408 3.76096 11.8484 3.77807C11.7401 3.79804 11.6843 3.73671 11.654 3.64044C11.6402 3.59837 11.596 3.56913 11.5919 3.53277C11.585 3.47358 11.5526 3.47358 11.514 3.47358C11.434 3.47358 11.3754 3.4472 11.3644 3.35592C11.3609 3.32954 11.3534 3.30743 11.3285 3.29317C11.2748 3.2618 11.2575 3.20974 11.2582 3.14913C11.2582 3.12916 11.2603 3.0985 11.2389 3.09921C11.1672 3.10064 11.1093 3.04573 11.0459 3.04359C10.968 3.04074 10.9183 3.00794 10.9032 2.94305C10.8804 2.84535 10.8356 2.78545 10.7508 2.73126C10.7012 2.69988 10.6625 2.67421 10.606 2.6792C10.5791 2.68134 10.5474 2.69988 10.5274 2.6735C10.4833 2.61431 10.4316 2.56083 10.3888 2.50378C10.324 2.41679 10.2468 2.3683 10.151 2.34904C10.0434 2.32765 9.94692 2.29414 9.88556 2.19217C9.86487 2.15722 9.82696 2.14011 9.80214 2.1123C9.7456 2.04884 9.6415 2.03529 9.62081 1.93973C9.60841 1.88269 9.58014 1.87556 9.53464 1.87556C9.47465 1.87556 9.41329 1.86343 9.39399 1.79498C9.3802 1.74506 9.35056 1.72295 9.31195 1.69728C9.25197 1.65806 9.18509 1.61457 9.23129 1.52044C9.24852 1.48478 9.22301 1.48264 9.20095 1.47979C9.12994 1.47052 9.07478 1.43986 9.05755 1.36071C9.05272 1.33789 9.03617 1.33147 9.01618 1.32505C8.93483 1.30152 8.87416 1.24733 8.8128 1.18743C8.76799 1.14322 8.74661 1.07405 8.68112 1.05265C8.59356 1.02413 8.5515 0.961379 8.5515 0.869391C8.5515 0.819475 8.53013 0.798082 8.48394 0.792377C8.43016 0.785246 8.3819 0.758862 8.35157 0.713225C8.30538 0.644768 8.28331 0.558485 8.20886 0.508569C8.1861 0.493594 8.18541 0.458653 8.19093 0.428703C8.19507 0.403745 8.18679 0.372369 8.16335 0.376648C8.03994 0.401606 8.02064 0.258276 7.92963 0.221908C7.88482 0.204081 7.84483 0.174844 7.79244 0.175558C7.62697 0.176984 7.47323 0.106388 7.31052 0.0878482C7.30777 0.0878482 7.3057 0.0857088 7.30294 0.0842826C7.1816 0.0144001 7.04647 0.00869541 6.91272 0.000138379C6.87618 -0.00200088 6.85619 0.0208177 6.8555 0.0578982C6.85343 0.127781 6.81344 0.174132 6.7638 0.211925C6.72381 0.242588 6.70934 0.276816 6.72381 0.329584C6.74588 0.413729 6.74863 0.49716 6.69899 0.575599C6.66935 0.622663 6.67831 0.674005 6.70106 0.722495C6.7376 0.799508 6.7707 0.876521 6.79896 0.959239C6.84447 1.0933 6.82723 1.26016 6.95753 1.35928C6.96512 1.36499 6.9665 1.37996 6.96925 1.39066C6.98373 1.44984 7.02303 1.48835 7.06991 1.52115C7.10438 1.54468 7.14713 1.56394 7.1685 1.59674C7.20021 1.64594 7.28432 1.67946 7.24089 1.7579C7.20435 1.8235 7.22779 1.86415 7.27122 1.90693C7.325 1.9597 7.39119 2.00035 7.4291 2.0688C7.47185 2.14724 7.54079 2.17505 7.62008 2.18361C7.64766 2.18646 7.67937 2.18004 7.69523 2.20785C7.74969 2.30341 7.84621 2.35974 7.90757 2.44317C7.98134 2.54372 8.0689 2.58793 8.1799 2.6136C8.24402 2.62857 8.31158 2.65781 8.3233 2.73768C8.34054 2.84892 8.40672 2.89812 8.50669 2.91238C8.57701 2.92237 8.62183 2.96087 8.64389 3.03076C8.6494 3.0493 8.65905 3.06855 8.67146 3.0821C8.77419 3.19263 8.87071 3.31028 8.98378 3.40726C9.04307 3.45789 9.10098 3.50496 9.14373 3.57127C9.16096 3.59837 9.1844 3.60479 9.21543 3.59267C9.31608 3.55416 9.40157 3.59552 9.4719 3.66184C9.52912 3.71603 9.59461 3.75739 9.65253 3.80873C9.71113 3.86007 9.80282 3.84082 9.8435 3.90001C9.92141 4.01268 10.0234 4.08684 10.1351 4.15387C10.151 4.16385 10.1662 4.17882 10.1758 4.19594C10.2275 4.28864 10.3096 4.35424 10.3737 4.43553C10.4192 4.49258 10.4736 4.52111 10.5453 4.51897C10.5722 4.51825 10.6088 4.51397 10.6219 4.54107C10.6688 4.64019 10.7763 4.67157 10.837 4.7607C10.93 4.89619 11.0838 4.97249 11.1886 5.10084C11.2093 5.12652 11.241 5.13151 11.2727 5.12794C11.3341 5.12081 11.3796 5.1529 11.4313 5.18142C11.5547 5.24917 11.6746 5.32475 11.7781 5.41817C11.8463 5.48021 11.9442 5.5344 11.9394 5.65705C11.938 5.69413 11.9545 5.73478 11.9911 5.74833C12.1441 5.80323 12.2393 5.94229 12.3675 6.03356C12.4744 6.10986 12.5599 6.20898 12.7012 6.20898C12.7322 6.20898 12.7495 6.22823 12.735 6.25961C12.7129 6.30596 12.5737 6.3573 12.5226 6.3352C12.4827 6.31808 12.4427 6.31452 12.4013 6.32022C12.2055 6.34661 12.0166 6.30453 11.8277 6.26104C11.7001 6.2318 11.5685 6.21825 11.4423 6.2318C11.3465 6.2425 11.2603 6.24535 11.1686 6.21255C11.1183 6.19472 11.0424 6.18331 11.0121 6.22752C10.9576 6.30667 10.8935 6.28956 10.8287 6.27387C10.7611 6.25747 10.6722 6.25105 10.6398 6.19115C10.6012 6.12056 10.5474 6.12198 10.4916 6.10701C10.433 6.09203 10.3778 6.07349 10.3158 6.10772C10.2682 6.13411 10.2186 6.13054 10.16 6.1063C10.0765 6.07207 9.97656 6.02429 9.89107 6.08205C9.79179 6.14979 9.69252 6.1391 9.5891 6.1227C9.53877 6.11485 9.49396 6.11771 9.45742 6.15193C9.42226 6.18545 9.38916 6.17547 9.35056 6.1662C9.28989 6.15122 9.22439 6.09845 9.17061 6.12626C9.08857 6.16833 9.01136 6.1448 8.93138 6.14837C8.75558 6.15621 8.57908 6.16406 8.40327 6.18117C8.32468 6.18901 8.26401 6.15978 8.20265 6.12127C8.14129 6.08276 8.08131 6.07064 8.01857 6.11628C7.99582 6.13268 7.96962 6.14766 7.94135 6.13767C7.8407 6.10273 7.73521 6.12555 7.6318 6.10059C7.53183 6.07635 7.43186 6.04782 7.32569 6.04354C7.24709 6.03998 7.15678 6.02001 7.09335 5.96724C7.04923 5.93088 7.01682 5.92517 6.96856 5.93801C6.83895 5.97295 6.71072 5.94443 6.58179 5.92731C6.4246 5.90734 6.26258 5.86171 6.11091 5.88524C5.98474 5.90521 5.86271 5.86741 5.7393 5.89879C5.69173 5.91091 5.63658 5.90735 5.58763 5.91234C5.47456 5.92303 5.3677 5.8774 5.25394 5.90093C5.1064 5.93088 4.95611 5.95726 4.80443 5.91662C4.78237 5.91091 4.75135 5.91662 4.73273 5.93016C4.67964 5.96724 4.63138 5.94728 4.58519 5.92232C4.47971 5.86527 4.37147 5.83604 4.25288 5.86741C4.22186 5.87526 4.19359 5.86313 4.16602 5.84745C4.03709 5.774 3.92678 5.78755 3.81234 5.88952C3.80062 5.8995 3.78338 5.90521 3.76821 5.90877C3.50278 5.96368 3.23597 5.90021 2.96985 5.91804C2.95675 5.91875 2.94296 5.91305 2.92986 5.90806C2.76715 5.84388 2.601 5.83604 2.43002 5.86527C2.39072 5.8724 2.35143 5.85101 2.32316 5.82605C2.26318 5.77328 2.21147 5.7904 2.16045 5.83461C2.1315 5.85957 2.10116 5.86741 2.06393 5.87383C1.91708 5.90021 1.76748 5.856 1.62132 5.89736C1.56478 5.91305 1.51928 5.97723 1.45172 5.94585C1.39587 5.92018 1.34485 5.93872 1.29177 5.95298C1.25936 5.96154 1.22696 5.95726 1.19318 5.95227C1.07735 5.93373 0.963596 5.89166 0.842945 5.91804C0.791927 5.92945 0.74022 5.93729 0.688512 5.94157C0.58234 5.95013 0.475477 5.95655 0.368615 5.96083C0.322423 5.96225 0.294846 5.98222 0.267268 6.02073C0.20384 6.10986 0.132829 6.19258 0.0397551 6.25105C0.00735175 6.27173 -0.00988421 6.29455 0.00597277 6.3352C0.0383761 6.41863 0.0535438 6.50848 0.0990465 6.58763C0.121798 6.62756 0.132139 6.67463 0.121108 6.72668C0.101115 6.82509 0.161785 6.95701 0.24107 6.99195L0.243827 6.99266Z" fill="#0525C6"/>
</svg>
